# MagicaVoxel @ Ephtracy

# material
mtllib astronautv2.mtl
usemtl palette

# normals
vn -1 0 0
vn 1 0 0
vn 0 0 1
vn 0 0 -1
vn 0 -1 0
vn 0 1 0

# texcoords
vt 0.00195313 0.5
vt 0.00976563 0.5
vt 0.306641 0.5
vt 0.751953 0.5
vt 0.755859 0.5
vt 0.841797 0.5
vt 0.876953 0.5
vt 0.970703 0.5
vt 0.990234 0.5

# verts
v -7 6 5
v -7 6 3
v -7 6 -2
v -7 9 5
v -7 9 3
v -7 9 1
v -7 11 1
v -7 11 -2
v -5 12 5
v -5 12 -4
v -5 13 5
v -5 13 -1
v -5 13 -3
v -5 19 5
v -5 19 -1
v -5 19 -3
v -5 20 5
v -5 20 -4
v -4 0 4
v -4 0 -2
v -4 2 4
v -4 2 1
v -4 2 -2
v -4 5 4
v -4 5 1
v -4 5 -2
v -4 5 -4
v -4 5 -5
v -4 5 -8
v -4 6 4
v -4 6 3
v -4 6 -2
v -4 9 4
v -4 9 3
v -4 9 1
v -4 11 4
v -4 11 1
v -4 11 -2
v -4 11 -4
v -4 17 -5
v -4 17 -8
v -3 6 -4
v -3 6 -5
v -3 10 -4
v -3 10 -5
v -3 17 -6
v -3 17 -7
v -3 20 -6
v -3 20 -7
v -3 21 -6
v -3 21 -7
v -2 11 1
v -2 11 -2
v -2 12 1
v -2 12 -2
v 1 0 4
v 1 0 -2
v 1 1 1
v 1 1 -1
v 1 2 4
v 1 2 1
v 1 2 -1
v 1 2 -2
v 1 5 1
v 1 5 -2
v 2 13 -2
v 2 13 -3
v 2 17 -6
v 2 17 -7
v 2 19 -2
v 2 19 -3
v 2 22 -6
v 2 22 -7
v 2 23 -6
v 2 23 -7
v 3 13 -1
v 3 13 -2
v 3 19 -1
v 3 19 -2
v 4 6 5
v 4 6 4
v 4 9 5
v 4 9 4
v -4 6 5
v -4 6 4
v -4 9 5
v -4 9 4
v -3 13 -1
v -3 13 -2
v -3 19 -1
v -3 19 -2
v -2 13 -2
v -2 13 -3
v -2 17 -6
v -2 17 -7
v -2 19 -2
v -2 19 -3
v -2 20 -6
v -2 20 -7
v -2 21 -6
v -2 21 -7
v -1 0 4
v -1 0 -2
v -1 1 1
v -1 1 -1
v -1 2 4
v -1 2 1
v -1 2 -1
v -1 2 -2
v -1 5 1
v -1 5 -2
v 2 11 1
v 2 11 -2
v 2 12 1
v 2 12 -2
v 3 6 -4
v 3 6 -5
v 3 10 -4
v 3 10 -5
v 3 17 -6
v 3 17 -7
v 3 22 -6
v 3 22 -7
v 3 23 -6
v 3 23 -7
v 4 0 4
v 4 0 -2
v 4 2 4
v 4 2 1
v 4 2 -2
v 4 5 4
v 4 5 1
v 4 5 -2
v 4 5 -4
v 4 5 -5
v 4 5 -8
v 4 6 4
v 4 6 3
v 4 6 -2
v 4 9 4
v 4 9 3
v 4 9 1
v 4 11 4
v 4 11 1
v 4 11 -2
v 4 11 -4
v 4 17 -5
v 4 17 -8
v 5 12 5
v 5 12 -4
v 5 13 5
v 5 13 -1
v 5 13 -3
v 5 19 5
v 5 19 -1
v 5 19 -3
v 5 20 5
v 5 20 -4
v 7 6 5
v 7 6 3
v 7 6 -2
v 7 9 5
v 7 9 3
v 7 9 1
v 7 11 1
v 7 11 -2
v -7 6 5
v -7 9 5
v -5 12 5
v -5 13 5
v -5 19 5
v -5 20 5
v -4 6 5
v -4 9 5
v 4 6 5
v 4 9 5
v 5 12 5
v 5 13 5
v 5 19 5
v 5 20 5
v 7 6 5
v 7 9 5
v -4 0 4
v -4 2 4
v -4 5 4
v -4 6 4
v -4 9 4
v -4 11 4
v -1 0 4
v -1 2 4
v 1 0 4
v 1 2 4
v 4 0 4
v 4 2 4
v 4 5 4
v 4 6 4
v 4 9 4
v 4 11 4
v -7 9 1
v -7 11 1
v -4 2 1
v -4 5 1
v -4 9 1
v -4 11 1
v -2 11 1
v -2 12 1
v -1 2 1
v -1 5 1
v 1 2 1
v 1 5 1
v 2 11 1
v 2 12 1
v 4 2 1
v 4 5 1
v 4 9 1
v 4 11 1
v 7 9 1
v 7 11 1
v -3 13 -2
v -3 19 -2
v -2 13 -2
v -2 19 -2
v 2 13 -2
v 2 19 -2
v 3 13 -2
v 3 19 -2
v -2 13 -3
v -2 19 -3
v 2 13 -3
v 2 19 -3
v -4 5 -5
v -4 17 -5
v -3 6 -5
v -3 10 -5
v 3 6 -5
v 3 10 -5
v 4 5 -5
v 4 17 -5
v -3 17 -6
v -3 20 -6
v -3 21 -6
v -2 17 -6
v -2 20 -6
v -2 21 -6
v 2 17 -6
v 2 22 -6
v 2 23 -6
v 3 17 -6
v 3 22 -6
v 3 23 -6
v -3 13 -1
v -3 19 -1
v -2 13 -1
v 2 13 -1
v 3 13 -1
v 3 19 -1
v -7 6 -2
v -7 11 -2
v -4 0 -2
v -4 2 -2
v -4 5 -2
v -4 6 -2
v -4 11 -2
v -2 11 -2
v -2 12 -2
v -1 0 -2
v -1 2 -2
v -1 5 -2
v 1 0 -2
v 1 2 -2
v 1 5 -2
v 2 11 -2
v 2 12 -2
v 4 0 -2
v 4 2 -2
v 4 5 -2
v 4 6 -2
v 4 11 -2
v 7 6 -2
v 7 11 -2
v -5 12 -4
v -5 20 -4
v -4 5 -4
v -4 11 -4
v -3 6 -4
v -3 10 -4
v 3 6 -4
v 3 10 -4
v 4 5 -4
v 4 11 -4
v 5 12 -4
v 5 20 -4
v -3 17 -7
v -3 20 -7
v -3 21 -7
v -2 17 -7
v -2 20 -7
v -2 21 -7
v 2 17 -7
v 2 22 -7
v 2 23 -7
v 3 17 -7
v 3 22 -7
v 3 23 -7
v -4 5 -8
v -4 17 -8
v 4 5 -8
v 4 17 -8
v -4 0 4
v -1 0 4
v 1 0 4
v 4 0 4
v -4 0 -2
v -1 0 -2
v 1 0 -2
v 4 0 -2
v -4 5 4
v 4 5 4
v -4 5 1
v -1 5 1
v 1 5 1
v 4 5 1
v -4 5 -2
v -1 5 -2
v 1 5 -2
v 4 5 -2
v -4 5 -4
v 4 5 -4
v -4 5 -5
v 4 5 -5
v -4 5 -8
v 4 5 -8
v -7 6 5
v -4 6 5
v 4 6 5
v 7 6 5
v -4 6 4
v 4 6 4
v -7 6 3
v -4 6 3
v 4 6 3
v 7 6 3
v -7 6 -2
v -4 6 -2
v 4 6 -2
v 7 6 -2
v -3 6 -4
v 3 6 -4
v -3 6 -5
v 3 6 -5
v -5 12 5
v 5 12 5
v -2 12 1
v 2 12 1
v -2 12 -2
v 2 12 -2
v -5 12 -4
v 5 12 -4
v -3 19 -1
v 3 19 -1
v -3 19 -2
v -2 19 -2
v 2 19 -2
v 3 19 -2
v -2 19 -3
v 2 19 -3
v -4 2 4
v -1 2 4
v 1 2 4
v 4 2 4
v -4 2 1
v -1 2 1
v 1 2 1
v 4 2 1
v -7 9 5
v -4 9 5
v 4 9 5
v 7 9 5
v -4 9 4
v 4 9 4
v -7 9 3
v -4 9 3
v 4 9 3
v 7 9 3
v -7 9 1
v -4 9 1
v 4 9 1
v 7 9 1
v -3 10 -4
v 3 10 -4
v -3 10 -5
v 3 10 -5
v -4 11 4
v 4 11 4
v -7 11 1
v -4 11 1
v -2 11 1
v 2 11 1
v 4 11 1
v 7 11 1
v -7 11 -2
v -4 11 -2
v -2 11 -2
v 2 11 -2
v 4 11 -2
v 7 11 -2
v -4 11 -4
v 4 11 -4
v -3 13 -1
v -2 13 -1
v 2 13 -1
v 3 13 -1
v -3 13 -2
v -2 13 -2
v 2 13 -2
v 3 13 -2
v -2 13 -3
v 2 13 -3
v -4 17 -5
v 4 17 -5
v -3 17 -6
v -2 17 -6
v 2 17 -6
v 3 17 -6
v -3 17 -7
v -2 17 -7
v 2 17 -7
v 3 17 -7
v -4 17 -8
v 4 17 -8
v -5 20 5
v 5 20 5
v -5 20 -4
v 5 20 -4
v -3 21 -6
v -2 21 -6
v -3 21 -7
v -2 21 -7
v 2 23 -6
v 3 23 -6
v 2 23 -7
v 3 23 -7

# faces
f 4/7/1 2/7/1 1/7/1
f 5/8/1 3/8/1 2/8/1
f 5/7/1 2/7/1 4/7/1
f 6/8/1 3/8/1 5/8/1
f 7/8/1 3/8/1 6/8/1
f 8/8/1 3/8/1 7/8/1
f 11/8/1 10/8/1 9/8/1
f 12/8/1 10/8/1 11/8/1
f 13/8/1 10/8/1 12/8/1
f 14/9/1 12/9/1 11/9/1
f 15/5/1 13/5/1 12/5/1
f 15/9/1 12/9/1 14/9/1
f 16/8/1 10/8/1 13/8/1
f 16/5/1 13/5/1 15/5/1
f 17/8/1 15/8/1 14/8/1
f 17/8/1 16/8/1 15/8/1
f 18/8/1 10/8/1 16/8/1
f 18/8/1 16/8/1 17/8/1
f 21/9/1 20/9/1 19/9/1
f 22/9/1 20/9/1 21/9/1
f 23/9/1 20/9/1 22/9/1
f 25/8/1 23/8/1 22/8/1
f 26/8/1 23/8/1 25/8/1
f 30/8/1 26/8/1 25/8/1
f 30/8/1 25/8/1 24/8/1
f 30/8/1 27/8/1 26/8/1
f 31/8/1 27/8/1 30/8/1
f 32/8/1 27/8/1 31/8/1
f 36/8/1 34/8/1 33/8/1
f 36/8/1 35/8/1 34/8/1
f 37/8/1 35/8/1 36/8/1
f 38/8/1 27/8/1 32/8/1
f 39/8/1 27/8/1 38/8/1
f 40/8/1 29/8/1 28/8/1
f 41/8/1 29/8/1 40/8/1
f 44/8/1 43/8/1 42/8/1
f 45/8/1 43/8/1 44/8/1
f 48/8/1 47/8/1 46/8/1
f 49/8/1 47/8/1 48/8/1
f 50/1/1 49/1/1 48/1/1
f 51/1/1 49/1/1 50/1/1
f 54/8/1 53/8/1 52/8/1
f 55/8/1 53/8/1 54/8/1
f 58/9/1 57/9/1 56/9/1
f 59/9/1 57/9/1 58/9/1
f 60/9/1 58/9/1 56/9/1
f 61/7/1 59/7/1 58/7/1
f 61/9/1 58/9/1 60/9/1
f 62/9/1 57/9/1 59/9/1
f 62/7/1 59/7/1 61/7/1
f 63/9/1 57/9/1 62/9/1
f 64/8/1 62/8/1 61/8/1
f 64/8/1 63/8/1 62/8/1
f 65/8/1 63/8/1 64/8/1
f 70/4/1 67/4/1 66/4/1
f 71/4/1 67/4/1 70/4/1
f 72/8/1 69/8/1 68/8/1
f 73/8/1 69/8/1 72/8/1
f 74/6/1 73/6/1 72/6/1
f 75/6/1 73/6/1 74/6/1
f 78/4/1 77/4/1 76/4/1
f 79/4/1 77/4/1 78/4/1
f 82/7/1 81/7/1 80/7/1
f 83/7/1 81/7/1 82/7/1
f 84/7/2 85/7/2 86/7/2
f 86/7/2 85/7/2 87/7/2
f 88/4/2 89/4/2 90/4/2
f 90/4/2 89/4/2 91/4/2
f 92/4/2 93/4/2 96/4/2
f 96/4/2 93/4/2 97/4/2
f 94/8/2 95/8/2 98/8/2
f 98/8/2 95/8/2 99/8/2
f 98/1/2 99/1/2 100/1/2
f 100/1/2 99/1/2 101/1/2
f 102/9/2 103/9/2 104/9/2
f 104/9/2 103/9/2 105/9/2
f 102/9/2 104/9/2 106/9/2
f 104/7/2 105/7/2 107/7/2
f 106/9/2 104/9/2 107/9/2
f 105/9/2 103/9/2 108/9/2
f 107/7/2 105/7/2 108/7/2
f 108/9/2 103/9/2 109/9/2
f 107/8/2 108/8/2 110/8/2
f 108/8/2 109/8/2 110/8/2
f 110/8/2 109/8/2 111/8/2
f 112/8/2 113/8/2 114/8/2
f 114/8/2 113/8/2 115/8/2
f 116/8/2 117/8/2 118/8/2
f 118/8/2 117/8/2 119/8/2
f 120/8/2 121/8/2 122/8/2
f 122/8/2 121/8/2 123/8/2
f 122/6/2 123/6/2 124/6/2
f 124/6/2 123/6/2 125/6/2
f 126/9/2 127/9/2 128/9/2
f 128/9/2 127/9/2 129/9/2
f 129/9/2 127/9/2 130/9/2
f 129/8/2 130/8/2 132/8/2
f 132/8/2 130/8/2 133/8/2
f 132/8/2 133/8/2 137/8/2
f 131/8/2 132/8/2 137/8/2
f 133/8/2 134/8/2 137/8/2
f 137/8/2 134/8/2 138/8/2
f 138/8/2 134/8/2 139/8/2
f 140/8/2 141/8/2 143/8/2
f 141/8/2 142/8/2 143/8/2
f 143/8/2 142/8/2 144/8/2
f 139/8/2 134/8/2 145/8/2
f 145/8/2 134/8/2 146/8/2
f 135/8/2 136/8/2 147/8/2
f 147/8/2 136/8/2 148/8/2
f 149/8/2 150/8/2 151/8/2
f 151/8/2 150/8/2 152/8/2
f 152/8/2 150/8/2 153/8/2
f 151/9/2 152/9/2 154/9/2
f 152/5/2 153/5/2 155/5/2
f 154/9/2 152/9/2 155/9/2
f 153/8/2 150/8/2 156/8/2
f 155/5/2 153/5/2 156/5/2
f 154/8/2 155/8/2 157/8/2
f 155/8/2 156/8/2 157/8/2
f 156/8/2 150/8/2 158/8/2
f 157/8/2 156/8/2 158/8/2
f 159/7/2 160/7/2 162/7/2
f 160/8/2 161/8/2 163/8/2
f 162/7/2 160/7/2 163/7/2
f 163/8/2 161/8/2 164/8/2
f 164/8/2 161/8/2 165/8/2
f 165/8/2 161/8/2 166/8/2
f 173/7/3 168/7/3 167/7/3
f 174/7/3 168/7/3 173/7/3
f 177/8/3 170/8/3 169/8/3
f 178/9/3 171/9/3 170/9/3
f 178/8/3 170/8/3 177/8/3
f 179/8/3 172/8/3 171/8/3
f 179/9/3 171/9/3 178/9/3
f 180/8/3 172/8/3 179/8/3
f 181/7/3 176/7/3 175/7/3
f 182/7/3 176/7/3 181/7/3
f 189/9/3 184/9/3 183/9/3
f 190/9/3 184/9/3 189/9/3
f 193/9/3 192/9/3 191/9/3
f 194/9/3 192/9/3 193/9/3
f 195/8/3 188/8/3 187/8/3
f 195/8/3 186/8/3 185/8/3
f 195/8/3 187/8/3 186/8/3
f 196/8/3 188/8/3 195/8/3
f 197/8/3 188/8/3 196/8/3
f 198/8/3 188/8/3 197/8/3
f 203/8/3 200/8/3 199/8/3
f 204/8/3 200/8/3 203/8/3
f 207/8/3 202/8/3 201/8/3
f 208/8/3 202/8/3 207/8/3
f 211/8/3 206/8/3 205/8/3
f 212/8/3 206/8/3 211/8/3
f 213/8/3 210/8/3 209/8/3
f 214/8/3 210/8/3 213/8/3
f 217/8/3 216/8/3 215/8/3
f 218/8/3 216/8/3 217/8/3
f 221/4/3 220/4/3 219/4/3
f 222/4/3 220/4/3 221/4/3
f 225/4/3 224/4/3 223/4/3
f 226/4/3 224/4/3 225/4/3
f 229/8/3 228/8/3 227/8/3
f 230/8/3 228/8/3 229/8/3
f 233/8/3 232/8/3 231/8/3
f 234/8/3 232/8/3 233/8/3
f 235/8/3 233/8/3 231/8/3
f 236/8/3 232/8/3 234/8/3
f 237/8/3 235/8/3 231/8/3
f 237/8/3 236/8/3 235/8/3
f 238/8/3 232/8/3 236/8/3
f 238/8/3 236/8/3 237/8/3
f 242/8/3 240/8/3 239/8/3
f 243/1/3 241/1/3 240/1/3
f 243/8/3 240/8/3 242/8/3
f 244/1/3 241/1/3 243/1/3
f 248/8/3 246/8/3 245/8/3
f 249/6/3 247/6/3 246/6/3
f 249/8/3 246/8/3 248/8/3
f 250/6/3 247/6/3 249/6/3
f 251/9/4 252/9/4 253/9/4
f 253/9/4 252/9/4 254/9/4
f 254/9/4 252/9/4 255/9/4
f 255/9/4 252/9/4 256/9/4
f 257/8/4 258/8/4 262/8/4
f 262/8/4 258/8/4 263/8/4
f 259/9/4 260/9/4 266/9/4
f 260/8/4 261/8/4 267/8/4
f 266/9/4 260/9/4 267/9/4
f 267/8/4 261/8/4 268/8/4
f 264/8/4 265/8/4 272/8/4
f 272/8/4 265/8/4 273/8/4
f 269/9/4 270/9/4 274/9/4
f 270/8/4 271/8/4 275/8/4
f 274/9/4 270/9/4 275/9/4
f 275/8/4 271/8/4 276/8/4
f 277/8/4 278/8/4 279/8/4
f 279/8/4 278/8/4 280/8/4
f 283/8/4 284/8/4 285/8/4
f 285/8/4 284/8/4 286/8/4
f 283/8/4 285/8/4 287/8/4
f 286/8/4 284/8/4 288/8/4
f 283/8/4 287/8/4 289/8/4
f 287/8/4 288/8/4 289/8/4
f 288/8/4 284/8/4 290/8/4
f 289/8/4 288/8/4 290/8/4
f 281/8/4 282/8/4 291/8/4
f 291/8/4 282/8/4 292/8/4
f 293/8/4 294/8/4 296/8/4
f 294/1/4 295/1/4 297/1/4
f 296/8/4 294/8/4 297/8/4
f 297/1/4 295/1/4 298/1/4
f 299/8/4 300/8/4 302/8/4
f 300/6/4 301/6/4 303/6/4
f 302/8/4 300/8/4 303/8/4
f 303/6/4 301/6/4 304/6/4
f 305/8/4 306/8/4 307/8/4
f 307/8/4 306/8/4 308/8/4
f 313/9/5 310/9/5 309/9/5
f 314/9/5 310/9/5 313/9/5
f 315/9/5 312/9/5 311/9/5
f 316/9/5 312/9/5 315/9/5
f 319/8/5 318/8/5 317/8/5
f 320/8/5 318/8/5 319/8/5
f 321/8/5 318/8/5 320/8/5
f 322/8/5 318/8/5 321/8/5
f 324/8/5 321/8/5 320/8/5
f 325/8/5 321/8/5 324/8/5
f 327/8/5 324/8/5 323/8/5
f 327/8/5 326/8/5 325/8/5
f 327/8/5 325/8/5 324/8/5
f 328/8/5 326/8/5 327/8/5
f 331/8/5 330/8/5 329/8/5
f 332/8/5 330/8/5 331/8/5
f 337/7/5 334/7/5 333/7/5
f 338/7/5 336/7/5 335/7/5
f 339/7/5 337/7/5 333/7/5
f 340/7/5 337/7/5 339/7/5
f 341/7/5 336/7/5 338/7/5
f 342/7/5 336/7/5 341/7/5
f 343/8/5 340/8/5 339/8/5
f 344/8/5 340/8/5 343/8/5
f 345/8/5 342/8/5 341/8/5
f 346/8/5 342/8/5 345/8/5
f 349/8/5 348/8/5 347/8/5
f 350/8/5 348/8/5 349/8/5
f 353/8/5 352/8/5 351/8/5
f 354/8/5 352/8/5 353/8/5
f 355/8/5 353/8/5 351/8/5
f 356/8/5 352/8/5 354/8/5
f 357/8/5 355/8/5 351/8/5
f 357/8/5 356/8/5 355/8/5
f 358/8/5 352/8/5 356/8/5
f 358/8/5 356/8/5 357/8/5
f 361/8/5 360/8/5 359/8/5
f 362/8/5 360/8/5 361/8/5
f 363/8/5 360/8/5 362/8/5
f 364/8/5 360/8/5 363/8/5
f 365/8/5 363/8/5 362/8/5
f 366/8/5 363/8/5 365/8/5
f 367/9/6 368/9/6 371/9/6
f 371/9/6 368/9/6 372/9/6
f 369/9/6 370/9/6 373/9/6
f 373/9/6 370/9/6 374/9/6
f 375/7/6 376/7/6 379/7/6
f 377/7/6 378/7/6 380/7/6
f 375/7/6 379/7/6 381/7/6
f 381/7/6 379/7/6 382/7/6
f 380/7/6 378/7/6 383/7/6
f 383/7/6 378/7/6 384/7/6
f 381/8/6 382/8/6 385/8/6
f 385/8/6 382/8/6 386/8/6
f 383/8/6 384/8/6 387/8/6
f 387/8/6 384/8/6 388/8/6
f 389/8/6 390/8/6 391/8/6
f 391/8/6 390/8/6 392/8/6
f 393/8/6 394/8/6 396/8/6
f 396/8/6 394/8/6 397/8/6
f 397/8/6 394/8/6 398/8/6
f 398/8/6 394/8/6 399/8/6
f 395/8/6 396/8/6 401/8/6
f 396/8/6 397/8/6 401/8/6
f 401/8/6 397/8/6 402/8/6
f 402/8/6 397/8/6 403/8/6
f 399/8/6 400/8/6 404/8/6
f 398/8/6 399/8/6 404/8/6
f 404/8/6 400/8/6 405/8/6
f 405/8/6 400/8/6 406/8/6
f 402/8/6 403/8/6 407/8/6
f 404/8/6 405/8/6 407/8/6
f 403/8/6 404/8/6 407/8/6
f 407/8/6 405/8/6 408/8/6
f 409/8/6 410/8/6 413/8/6
f 410/3/6 411/3/6 414/3/6
f 413/8/6 410/8/6 414/8/6
f 411/8/6 412/8/6 415/8/6
f 414/3/6 411/3/6 415/3/6
f 415/8/6 412/8/6 416/8/6
f 414/8/6 415/8/6 417/8/6
f 417/8/6 415/8/6 418/8/6
f 419/8/6 420/8/6 421/8/6
f 421/8/6 420/8/6 422/8/6
f 422/8/6 420/8/6 423/8/6
f 423/8/6 420/8/6 424/8/6
f 419/8/6 421/8/6 425/8/6
f 422/8/6 423/8/6 426/8/6
f 426/8/6 423/8/6 427/8/6
f 424/8/6 420/8/6 428/8/6
f 426/8/6 427/8/6 429/8/6
f 427/8/6 428/8/6 429/8/6
f 419/8/6 425/8/6 429/8/6
f 425/8/6 426/8/6 429/8/6
f 428/8/6 420/8/6 430/8/6
f 429/8/6 428/8/6 430/8/6
f 431/8/6 432/8/6 433/8/6
f 433/8/6 432/8/6 434/8/6
f 435/1/6 436/1/6 437/1/6
f 437/1/6 436/1/6 438/1/6
f 439/6/6 440/6/6 441/6/6
f 441/6/6 440/6/6 442/6/6
